<svg width="137" height="134" xmlns="http://www.w3.org/2000/svg" xmlns:xlink="http://www.w3.org/1999/xlink" overflow="hidden"><defs><clipPath id="clip0"><rect x="404" y="264" width="137" height="134"/></clipPath><clipPath id="clip1"><rect x="404" y="264" width="136" height="134"/></clipPath><clipPath id="clip2"><rect x="404" y="264" width="136" height="134"/></clipPath></defs><g clip-path="url(#clip0)" transform="translate(-404 -264)"><g clip-path="url(#clip1)"><g clip-path="url(#clip2)"><path d="M129.93 51.4944C122.08 16.0414 86.9752-6.33477 51.5222 1.51585 16.0692 9.36647-6.30697 44.471 1.54365 79.924 8.21101 110.033 34.9095 131.463 65.7483 131.458 72.8581 131.473 79.9222 130.322 86.6594 128.051 118.55 117.366 137.225 84.3265 129.93 51.4944ZM87.5209 100.483 71.5831 56.2327C68.372 47.3044 63.1247 47.3044 59.8353 56.2327L43.9367 100.483C35.2433 99.4253 30.975 92.6507 34.3426 84.8189L58.9738 26.08C62.6939 17.3084 68.7244 17.3084 72.4054 26.08L97.0366 84.8189C100.483 92.7291 96.1751 99.4253 87.5209 100.483Z" fill="#E81D3F" transform="matrix(1 0 0 1.00575 404 264.894)"/><path d="M97.0757 84.7014 72.4446 25.9626C68.7636 17.1909 62.7331 17.1909 59.013 25.9626L34.3818 84.7014C31.0141 92.7291 35.2825 99.4253 43.9758 100.365L59.8745 56.1152C63.1247 47.1869 68.372 47.1869 71.6222 56.1152L87.56 100.365C96.2142 99.3078 100.522 92.5333 97.1149 84.7014" fill="#FFFFFF" transform="matrix(1 0 0 1.00575 404 264.894)"/><path d="M212.635 106.2C212.635 101.618 213.261 95.4311 213.927 88.9306L213.614 88.9306C206.017 103.028 195.718 107.923 185.889 107.923 172.144 107.923 163.098 97.1541 163.098 81.647 163.098 55.4103 181.464 27.4115 217.412 27.4115 225.369 27.4649 233.278 28.6381 240.908 30.8966L232.762 71.074C230.533 82.6866 229.47 94.4932 229.591 106.317ZM220.075 42.4094C217.584 41.8372 215.033 41.5741 212.478 41.6263 195.561 41.6263 182.247 60.7751 182.247 78.3185 182.247 86.4244 185.262 93.0423 193.329 93.0423 202.062 93.0423 212.478 82.3127 216.12 62.6548Z" fill="#6D6F71" transform="matrix(1 0 0 1.00575 404 264.894)"/><path d="M302.388 103.341C295.411 106.415 287.846 107.925 280.223 107.766 260.918 107.766 248.896 95.4311 248.896 77.0654 248.289 50.2547 269.531 28.0282 296.342 27.4211 296.882 27.4089 297.422 27.4057 297.963 27.4115 303.313 27.4146 308.619 28.3829 313.626 30.2701L308.888 44.6807C305.196 43.0274 301.184 42.2117 297.14 42.292 279.44 42.292 268.202 58.5822 268.202 74.755 268.202 86.3069 274.859 92.7682 285.118 92.7682 290.782 92.8301 296.388 91.626 301.526 89.2439Z" fill="#6D6F71" transform="matrix(1 0 0 1.00575 404 264.894)"/><path d="M368.997 103.341C362.02 106.415 354.456 107.925 346.833 107.766 327.528 107.766 315.506 95.4311 315.506 77.0654 314.899 50.2547 336.141 28.0282 362.952 27.4211 363.492 27.4089 364.032 27.4057 364.572 27.4115 369.923 27.4103 375.23 28.3788 380.236 30.2701L375.498 44.6807C371.806 43.0274 367.794 42.2117 363.75 42.292 346.011 42.292 334.772 58.5822 334.772 74.755 334.772 86.3069 341.429 92.7682 351.728 92.7682 357.379 92.8269 362.971 91.6228 368.097 89.2439Z" fill="#6D6F71" transform="matrix(1 0 0 1.00575 404 264.894)"/><path d="M461.727 29.1345 451.623 82.2344C449.861 91.3976 448.765 99.4644 447.707 106.122L431.221 106.122 432.984 92.6507 432.67 92.6507C426.688 101.69 416.753 107.334 405.925 107.845 394.686 107.845 385.797 101.853 385.797 86.0328 385.946 81.4114 386.576 76.818 387.676 72.3271L395.9 29.2519 414.266 29.2519 406.434 71.3481C405.678 74.8241 405.258 78.3647 405.181 81.9211 405.181 88.2649 407.687 92.8465 414.97 92.8465 423.507 92.8465 433.336 82.7435 436.508 66.7665L443.439 29.2519Z" fill="#6D6F71" transform="matrix(1 0 0 1.00575 404 264.894)"/><path d="M468.227 106.2 477.234 58.7388C479.309 47.8526 480.405 35.9873 481.149 29.1736L497.322 29.1736C496.813 34.3818 496.343 39.7466 495.56 45.3072L496.03 45.3072C501.238 34.9692 509.54 27.4115 519.956 27.4115 521.405 27.4115 522.815 27.4115 524.107 27.4115L520.465 45.4639C519.305 45.3794 518.14 45.3794 516.98 45.4639 503.823 45.4639 495.443 58.7388 492.427 75.2249L486.593 106.239Z" fill="#6D6F71" transform="matrix(1 0 0 1.00575 404 264.894)"/><path d="M572.195 106.2C572.195 101.618 572.821 95.4311 573.448 88.9306L573.135 88.9306C565.538 103.028 555.278 107.923 545.449 107.923 531.665 107.923 522.658 97.1541 522.658 81.647 522.658 55.4103 541.024 27.3723 576.933 27.3723 584.89 27.4226 592.8 28.5959 600.429 30.8575L592.362 71.074C590.143 82.6877 589.094 94.4944 589.229 106.317ZM579.557 42.4094C577.066 41.8372 574.515 41.5741 571.96 41.6263 555.043 41.6263 541.729 60.7751 541.729 78.3185 541.729 86.4244 544.744 93.0423 552.811 93.0423 561.504 93.0423 571.96 82.3127 575.602 62.6548Z" fill="#6D6F71" transform="matrix(1 0 0 1.00575 404 264.894)"/><path d="M646.127 9.35906 642.211 29.1345 659.481 29.1345 656.622 43.3884 639.392 43.3884 633.44 74.4025C632.608 77.9884 632.136 81.6484 632.03 85.328 631.505 88.6388 633.763 91.7485 637.074 92.2737 637.646 92.3645 638.229 92.3728 638.805 92.2983 640.928 92.3109 643.05 92.1538 645.148 91.8284L643.425 106.239C639.53 107.413 635.469 107.942 631.403 107.805 618.716 107.805 613.194 100.835 613.194 92.1417 613.249 87.3506 613.774 82.5764 614.761 77.8877L621.418 43.5842 611.119 43.5842 613.821 29.3303 624.12 29.3303 626.939 14.9197Z" fill="#6D6F71" transform="matrix(1 0 0 1.00575 404 264.894)"/><path d="M719.198 101.814C710.713 105.909 701.404 108.012 691.983 107.962 670.641 107.962 660.342 94.8437 660.342 76.0081 660.342 52.7083 677.455 27.4115 704.044 27.4115 719.198 27.4115 728.871 36.1048 728.871 49.1057 728.871 68.6853 708.156 75.2249 678.395 74.5983 678.104 78.343 678.806 82.0983 680.431 85.4846 683.802 90.7914 689.827 93.8039 696.095 93.3164 703.475 93.385 710.761 91.6509 717.319 88.2649ZM701.655 41.1955C689.907 41.1955 682.506 51.4944 680.274 60.7751 699.266 60.7751 711.602 58.3864 711.602 49.0274 711.445 44.1716 707.49 41.1564 701.655 41.1564Z" fill="#6D6F71" transform="matrix(1 0 0 1.00575 404 264.894)"/></g></g></g></svg>