<?xml version="1.0" encoding="UTF-8"?>
<svg xmlns="http://www.w3.org/2000/svg" xmlns:xlink="http://www.w3.org/1999/xlink" width="283pt" height="283pt" viewBox="0 0 283 283" version="1.1">
<g id="surface1">
<rect x="0" y="0" width="283" height="283" style="fill:rgb(100%,100%,100%);fill-opacity:1;stroke:none;"/>
<path style=" stroke:none;fill-rule:evenodd;fill:rgb(0%,39.208984%,63.867188%);fill-opacity:1;" d="M 247.210938 163.558594 C 254.195313 160.289063 260.21875 156.890625 265.078125 153.46875 C 273.257813 147.691406 277.8125 142.078125 278.621094 136.773438 C 279.421875 131.441406 276.40625 126.882813 269.636719 123.171875 C 250.234375 112.511719 202.234375 110.492188 147.347656 118.050781 C 70.546875 128.601563 4.71875 153.128906 4.71875 174.449219 C 4.71875 202.074219 99.125 192.957031 99.125 192.957031 C 52.796875 195.710938 16.683594 187.832031 19.753906 173.328125 C 23.574219 155.238281 79.042969 132.730469 140.796875 122.515625 C 187.296875 114.828125 234.972656 115.984375 249.992188 125.910156 C 254.589844 128.9375 256.472656 132.570313 255.589844 136.773438 C 254.714844 140.933594 251.082031 145.507813 244.820313 150.308594 C 235.1875 157.746094 220.515625 165.027344 202.832031 171.480469 Z M 247.210938 163.558594 "/>
<path style=" stroke:none;fill-rule:evenodd;fill:rgb(0%,0%,0%);fill-opacity:1;" d="M 103.921875 111.679688 L 103.890625 135.40625 L 103.859375 146.914063 C 104.074219 151.917969 94.785156 152.4375 94.785156 152.4375 L 94.785156 155.332031 L 123.34375 155.332031 L 123.34375 152.4375 C 123.34375 152.4375 115.941406 151.246094 116.09375 146.914063 L 116.09375 89.066406 L 69.558594 147.609375 C 67.71875 150.949219 62.015625 152.4375 62.015625 152.4375 L 62.015625 155.332031 L 82.191406 155.332031 L 82.191406 152.4375 C 82.191406 152.4375 73.855469 152.207031 76.308594 148.03125 C 78.761719 143.851563 86 135.40625 86 135.40625 Z M 103.921875 111.679688 "/>
<path style=" stroke:none;fill-rule:evenodd;fill:rgb(0%,0%,0%);fill-opacity:1;" d="M 184.101563 91.976563 L 178.054688 110.476563 L 174.976563 110.476563 C 174.976563 110.476563 177.210938 95.949219 162.265625 96.542969 C 148.925781 97.082031 137.949219 114.621094 137.320313 131.96875 C 136.695313 149.480469 151.914063 156.367188 166.367188 143.925781 L 166.507813 148.257813 C 163.804688 151.652344 139.496094 166.148438 126.132813 142.753906 C 114.632813 122.628906 137.382813 86.402344 165.867188 92.597656 C 174.65625 94.503906 177.625 98.03125 180.871094 91.976563 C 180.871094 91.636719 184.101563 91.976563 184.101563 91.976563 Z M 184.101563 91.976563 "/>
<path style=" stroke:none;fill-rule:evenodd;fill:rgb(0%,0%,0%);fill-opacity:1;" d="M 172.113281 155.332031 L 218.683594 155.332031 L 226.007813 136.902344 L 222.929688 137.042969 C 222.929688 137.042969 213.414063 152.4375 195.6875 150.792969 C 190.871094 150.351563 192.472656 145.113281 192.472656 145.113281 C 193.226563 142.6875 205.070313 101.328125 205.070313 101.328125 C 206.234375 96.691406 209.164063 95.046875 212.097656 94.894531 L 212.097656 91.933594 L 185.730469 91.933594 L 185.730469 95.199219 C 190.71875 94.894531 192.324219 99.234375 191.445313 102.21875 C 190.84375 104.269531 178.554688 146.761719 178.554688 146.761719 C 177.976563 149.300781 175.488281 151.84375 172.113281 152.4375 Z M 172.113281 155.332031 "/>
<path style=" stroke:none;fill-rule:evenodd;fill:rgb(0%,0%,0%);fill-opacity:1;" d="M 233.820313 92.484375 L 229.554688 92.484375 L 229.554688 93.398438 L 231.234375 93.398438 L 231.234375 98.902344 L 232.160156 98.902344 L 232.160156 93.398438 L 233.820313 93.398438 Z M 240.511719 92.484375 L 239.171875 92.484375 L 237.601563 97.007813 L 236.101563 92.484375 L 234.738281 92.484375 L 234.738281 98.902344 L 235.570313 98.902344 L 235.570313 93.398438 L 235.605469 93.398438 L 237.359375 98.902344 L 237.84375 98.902344 L 239.636719 93.398438 L 239.679688 93.398438 L 239.679688 98.902344 L 240.511719 98.902344 Z M 240.511719 92.484375 "/>
</g>
</svg>
